<svg width="648" height="547" viewBox="0 0 648 547" fill="none" xmlns="http://www.w3.org/2000/svg">
<g clip-path="url(#clip0_4115_1059)">
<path d="M323.006 361.82V226.6L359.806 193.51H447.046L483.206 226.02V256.8H439.686V240.4L424.646 226.88H382.846L366.526 241.55V346.85L382.846 361.52H424.646L439.686 348V331.6H483.206V362.38L447.046 394.89H359.806L323.006 361.8V361.82Z" fill="black"/>
<path d="M285.456 394.91H329.616L247.696 193.52H208.016L126.096 394.91H170.256L188.496 350.31H241.636L232.036 318.09H198.416L227.216 241.56H227.856" fill="black"/>
<path d="M329.006 356.82V221.6L365.806 188.51H453.046L489.206 221.02V251.8H445.686V235.4L430.646 221.88H388.846L372.526 236.55V341.85L388.846 356.52H430.646L445.686 343V326.6H489.206V357.38L453.046 389.89H365.806L329.006 356.8V356.82Z" fill="url(#paint0_linear_4115_1059)"/>
<path d="M291.456 389.91H335.616L253.696 188.52H214.016L132.096 389.91H176.256L194.496 345.31H247.636L238.036 313.09H204.416L233.216 236.56H233.856" fill="url(#paint1_linear_4115_1059)"/>
<path d="M313.746 0L273.526 22.28V80.89L313.746 58.6V0Z" fill="url(#paint2_linear_4115_1059)"/>
<path d="M319.006 217.15L359.156 181.05V22.28L318.936 0V217.02" fill="url(#paint3_linear_4115_1059)"/>
<path d="M406.466 178.52V175.85L366.246 153.56V178.52H406.466Z" fill="url(#paint4_linear_4115_1059)"/>
<path d="M406.466 86.1902L366.246 63.9102V143.82L406.466 166.1V86.1902Z" fill="url(#paint5_linear_4115_1059)"/>
<path d="M267.366 52.9502L227.136 75.2302V170.19L267.366 147.9V52.9502Z" fill="url(#paint6_linear_4115_1059)"/>
<path d="M233.966 236.84L233.856 236.56V236.8L233.966 236.84Z" fill="url(#paint7_linear_4115_1059)"/>
<path d="M313.746 309.6V68.3501L273.526 90.6301V210.72L313.746 309.6Z" fill="url(#paint8_linear_4115_1059)"/>
<path d="M267.366 157.22L228.916 178.52H260.426L267.016 194.71L267.366 194.52V157.22Z" fill="url(#paint9_linear_4115_1059)"/>
</g>
<path d="M642.16 477.899C640.554 477.899 639.175 477.331 638.023 476.195C636.888 475.043 636.32 473.665 636.32 472.059C636.32 470.469 636.888 469.106 638.023 467.97C639.175 466.835 640.554 466.267 642.16 466.267C643.717 466.267 645.08 466.835 646.248 467.97C647.416 469.106 648 470.469 648 472.059C648 473.129 647.724 474.111 647.173 475.003C646.637 475.879 645.932 476.585 645.056 477.12C644.18 477.639 643.214 477.899 642.16 477.899Z" fill="black"/>
<path d="M608.908 477.997C605.128 477.997 601.86 477.194 599.102 475.588C596.36 473.965 594.243 471.71 592.751 468.823C591.258 465.919 590.512 462.553 590.512 458.724C590.512 454.863 591.258 451.489 592.751 448.601C594.243 445.698 596.36 443.443 599.102 441.837C601.86 440.214 605.128 439.403 608.908 439.403C612.688 439.403 615.949 440.214 618.69 441.837C621.448 443.443 623.573 445.698 625.066 448.601C626.558 451.489 627.305 454.863 627.305 458.724C627.305 462.553 626.558 465.919 625.066 468.823C623.573 471.71 621.448 473.965 618.69 475.588C615.949 477.194 612.688 477.997 608.908 477.997ZM608.957 469.967C610.676 469.967 612.112 469.48 613.264 468.506C614.416 467.517 615.284 466.17 615.868 464.467C616.468 462.764 616.768 460.825 616.768 458.651C616.768 456.477 616.468 454.539 615.868 452.836C615.284 451.132 614.416 449.786 613.264 448.796C612.112 447.807 610.676 447.312 608.957 447.312C607.221 447.312 605.761 447.807 604.577 448.796C603.409 449.786 602.525 451.132 601.924 452.836C601.34 454.539 601.048 456.477 601.048 458.651C601.048 460.825 601.34 462.764 601.924 464.467C602.525 466.17 603.409 467.517 604.577 468.506C605.761 469.48 607.221 469.967 608.957 469.967Z" fill="black"/>
<path d="M575.614 477.899C574.008 477.899 572.629 477.331 571.477 476.195C570.342 475.043 569.774 473.665 569.774 472.059C569.774 470.469 570.342 469.106 571.477 467.97C572.629 466.835 574.008 466.267 575.614 466.267C577.171 466.267 578.534 466.835 579.702 467.97C580.87 469.106 581.454 470.469 581.454 472.059C581.454 473.129 581.178 474.111 580.627 475.003C580.091 475.879 579.386 476.585 578.51 477.12C577.634 477.639 576.669 477.899 575.614 477.899Z" fill="black"/>
<path d="M542.362 477.997C538.583 477.997 535.314 477.194 532.556 475.588C529.814 473.965 527.697 471.71 526.205 468.823C524.712 465.919 523.966 462.553 523.966 458.724C523.966 454.863 524.712 451.489 526.205 448.601C527.697 445.698 529.814 443.443 532.556 441.837C535.314 440.214 538.583 439.403 542.362 439.403C546.142 439.403 549.403 440.214 552.145 441.837C554.902 443.443 557.028 445.698 558.52 448.601C560.012 451.489 560.759 454.863 560.759 458.724C560.759 462.553 560.012 465.919 558.52 468.823C557.028 471.71 554.902 473.965 552.145 475.588C549.403 477.194 546.142 477.997 542.362 477.997ZM542.411 469.967C544.131 469.967 545.566 469.48 546.718 468.506C547.87 467.517 548.738 466.17 549.322 464.467C549.922 462.764 550.222 460.825 550.222 458.651C550.222 456.477 549.922 454.539 549.322 452.836C548.738 451.132 547.87 449.786 546.718 448.796C545.566 447.807 544.131 447.312 542.411 447.312C540.675 447.312 539.215 447.807 538.031 448.796C536.863 449.786 535.979 451.132 535.379 452.836C534.795 454.539 534.503 456.477 534.503 458.651C534.503 460.825 534.795 462.764 535.379 464.467C535.979 466.17 536.863 467.517 538.031 468.506C539.215 469.48 540.675 469.967 542.411 469.967Z" fill="black"/>
<path d="M509.068 477.899C507.462 477.899 506.083 477.331 504.931 476.195C503.796 475.043 503.228 473.665 503.228 472.059C503.228 470.469 503.796 469.106 504.931 467.97C506.083 466.835 507.462 466.267 509.068 466.267C510.626 466.267 511.988 466.835 513.156 467.97C514.324 469.106 514.908 470.469 514.908 472.059C514.908 473.129 514.633 474.111 514.081 475.003C513.546 475.879 512.84 476.585 511.964 477.12C511.088 477.639 510.123 477.899 509.068 477.899Z" fill="black"/>
<path d="M471.163 477.875C468.324 477.875 465.753 477.145 463.449 475.685C461.162 474.209 459.345 472.043 457.998 469.188C456.668 466.316 456.003 462.796 456.003 458.627C456.003 454.344 456.692 450.783 458.071 447.945C459.45 445.089 461.283 442.956 463.571 441.545C465.874 440.117 468.397 439.403 471.138 439.403C473.231 439.403 474.975 439.76 476.37 440.474C477.782 441.172 478.917 442.048 479.777 443.102C480.653 444.14 481.318 445.162 481.772 446.168H482.089V427.431H492.43V477.267H482.21V471.281H481.772C481.286 472.319 480.596 473.349 479.704 474.371C478.828 475.377 477.684 476.212 476.273 476.877C474.878 477.542 473.174 477.875 471.163 477.875ZM474.448 469.626C476.119 469.626 477.53 469.172 478.682 468.263C479.85 467.339 480.742 466.049 481.359 464.394C481.991 462.739 482.308 460.801 482.308 458.578C482.308 456.356 481.999 454.425 481.383 452.787C480.766 451.148 479.874 449.883 478.706 448.991C477.538 448.099 476.119 447.652 474.448 447.652C472.744 447.652 471.309 448.115 470.141 449.04C468.973 449.964 468.089 451.246 467.488 452.884C466.888 454.523 466.588 456.421 466.588 458.578C466.588 460.752 466.888 462.675 467.488 464.345C468.105 466 468.989 467.298 470.141 468.239C471.309 469.164 472.744 469.626 474.448 469.626Z" fill="black"/>
<path d="M414.089 477.997C410.26 477.997 406.967 477.185 404.209 475.563C401.468 473.925 399.359 471.654 397.883 468.75C396.423 465.846 395.693 462.504 395.693 458.724C395.693 454.896 396.431 451.538 397.907 448.65C399.399 445.746 401.516 443.483 404.258 441.861C407 440.223 410.26 439.403 414.04 439.403C417.301 439.403 420.156 439.995 422.606 441.18C425.055 442.364 426.994 444.027 428.421 446.168C429.849 448.309 430.636 450.824 430.782 453.712H421C420.724 451.846 419.994 450.345 418.81 449.21C417.642 448.058 416.109 447.482 414.211 447.482C412.605 447.482 411.201 447.92 410.001 448.796C408.817 449.656 407.892 450.913 407.227 452.568C406.562 454.223 406.229 456.226 406.229 458.578C406.229 460.963 406.554 462.991 407.202 464.662C407.868 466.333 408.8 467.606 410.001 468.482C411.201 469.358 412.605 469.796 414.211 469.796C415.395 469.796 416.457 469.553 417.398 469.066C418.355 468.579 419.142 467.874 419.759 466.949C420.391 466.008 420.805 464.881 421 463.567H430.782C430.62 466.422 429.841 468.936 428.446 471.11C427.067 473.268 425.161 474.955 422.727 476.172C420.294 477.388 417.415 477.997 414.089 477.997ZM410.341 435.072L415.5 424H425.088L417.666 435.072H410.341Z" fill="black"/>
<path d="M376.476 477.266V439.889H386.842V477.266H376.476ZM381.683 435.071C380.142 435.071 378.82 434.56 377.717 433.538C376.63 432.5 376.086 431.259 376.086 429.815C376.086 428.388 376.63 427.163 377.717 426.141C378.82 425.103 380.142 424.583 381.683 424.583C383.224 424.583 384.538 425.103 385.625 426.141C386.728 427.163 387.28 428.388 387.28 429.815C387.28 431.259 386.728 432.5 385.625 433.538C384.538 434.56 383.224 435.071 381.683 435.071Z" fill="black"/>
<path d="M369.115 439.89L356.048 477.266H344.368L331.3 439.89H342.251L350.013 466.632H350.402L358.14 439.89H369.115Z" fill="black"/>
<path d="M308.281 477.997C304.501 477.997 301.232 477.194 298.475 475.588C295.733 473.965 293.616 471.71 292.123 468.823C290.631 465.919 289.885 462.553 289.885 458.724C289.885 454.863 290.631 451.489 292.123 448.601C293.616 445.698 295.733 443.443 298.475 441.837C301.232 440.214 304.501 439.403 308.281 439.403C312.061 439.403 315.322 440.214 318.063 441.837C320.821 443.443 322.946 445.698 324.439 448.601C325.931 451.489 326.677 454.863 326.677 458.724C326.677 462.553 325.931 465.919 324.439 468.823C322.946 471.71 320.821 473.965 318.063 475.588C315.322 477.194 312.061 477.997 308.281 477.997ZM308.33 469.967C310.049 469.967 311.485 469.48 312.637 468.506C313.789 467.517 314.657 466.17 315.241 464.467C315.841 462.764 316.141 460.825 316.141 458.651C316.141 456.477 315.841 454.539 315.241 452.836C314.657 451.132 313.789 449.786 312.637 448.796C311.485 447.807 310.049 447.312 308.33 447.312C306.594 447.312 305.134 447.807 303.95 448.796C302.782 449.786 301.898 451.132 301.297 452.836C300.713 454.539 300.421 456.477 300.421 458.651C300.421 460.825 300.713 462.764 301.297 464.467C301.898 466.17 302.782 467.517 303.95 468.506C305.134 469.48 306.594 469.967 308.33 469.967Z" fill="black"/>
<path d="M260.387 466.511L260.411 454.077H261.92L273.892 439.89H285.791L269.706 458.676H267.249L260.387 466.511ZM250.994 477.267V427.431H261.36V477.267H250.994ZM274.354 477.267L263.355 460.987L270.266 453.663L286.497 477.267H274.354Z" fill="black"/>
<path d="M241.559 450.547L232.069 451.131C231.907 450.32 231.558 449.59 231.022 448.941C230.487 448.276 229.781 447.749 228.905 447.36C228.046 446.954 227.015 446.751 225.815 446.751C224.209 446.751 222.854 447.092 221.751 447.773C220.648 448.438 220.097 449.331 220.097 450.45C220.097 451.342 220.453 452.097 221.167 452.713C221.881 453.33 223.106 453.824 224.842 454.197L231.606 455.56C235.24 456.306 237.949 457.507 239.734 459.162C241.518 460.816 242.411 462.99 242.411 465.683C242.411 468.133 241.689 470.282 240.245 472.131C238.817 473.981 236.854 475.425 234.356 476.463C231.874 477.485 229.011 477.996 225.766 477.996C220.818 477.996 216.876 476.966 213.94 474.905C211.02 472.829 209.309 470.006 208.806 466.437L219.002 465.902C219.31 467.411 220.056 468.562 221.24 469.357C222.424 470.136 223.941 470.525 225.791 470.525C227.608 470.525 229.068 470.177 230.171 469.479C231.29 468.765 231.858 467.849 231.874 466.729C231.858 465.788 231.46 465.018 230.682 464.418C229.903 463.801 228.703 463.331 227.08 463.006L220.608 461.717C216.957 460.987 214.24 459.721 212.456 457.921C210.687 456.12 209.803 453.824 209.803 451.034C209.803 448.633 210.452 446.565 211.75 444.829C213.064 443.093 214.905 441.755 217.274 440.814C219.659 439.873 222.449 439.403 225.645 439.403C230.365 439.403 234.08 440.4 236.789 442.396C239.515 444.391 241.105 447.108 241.559 450.547ZM220.973 424.364L225.864 430.302L230.755 424.364H239.588V424.705L229.708 435.412H221.995L212.139 424.705V424.364H220.973Z" fill="black"/>
<path d="M189.734 477.266V439.889H200.101V477.266H189.734ZM194.942 435.071C193.401 435.071 192.079 434.56 190.976 433.538C189.889 432.5 189.345 431.259 189.345 429.815C189.345 428.388 189.889 427.163 190.976 426.141C192.079 425.103 193.401 424.583 194.942 424.583C196.483 424.583 197.797 425.103 198.884 426.141C199.987 427.163 200.539 428.388 200.539 429.815C200.539 431.259 199.987 432.5 198.884 433.538C197.797 434.56 196.483 435.071 194.942 435.071Z" fill="black"/>
<path d="M125.171 427.431H138.166L151.89 460.914H152.474L166.198 427.431H179.192V477.267H168.972V444.83H168.558L155.662 477.023H148.702L135.805 444.708H135.392V477.267H125.171V427.431Z" fill="black"/>
<path d="M97.6449 444.878H86.9867C86.792 443.499 86.3945 442.274 85.7943 441.204C85.1941 440.117 84.4235 439.192 83.4826 438.43C82.5417 437.667 81.4548 437.083 80.2219 436.678C79.0052 436.272 77.6831 436.069 76.2555 436.069C73.6761 436.069 71.4293 436.71 69.515 437.992C67.6008 439.257 66.1164 441.106 65.0619 443.54C64.0075 445.957 63.4803 448.893 63.4803 452.349C63.4803 455.901 64.0075 458.886 65.0619 461.303C66.1326 463.721 67.6251 465.546 69.5394 466.779C71.4536 468.011 73.668 468.628 76.1825 468.628C77.5938 468.628 78.8997 468.441 80.1002 468.068C81.3169 467.695 82.3957 467.152 83.3366 466.438C84.2775 465.708 85.0562 464.824 85.6726 463.785C86.3053 462.747 86.7433 461.563 86.9867 460.233L97.6449 460.281C97.3691 462.569 96.6796 464.775 95.5765 466.9C94.4896 469.009 93.0214 470.899 91.1721 472.57C89.3389 474.225 87.1489 475.539 84.602 476.512C82.0712 477.469 79.208 477.948 76.0121 477.948C71.5672 477.948 67.5927 476.942 64.0886 474.93C60.6008 472.919 57.8429 470.007 55.8151 466.195C53.8035 462.382 52.7977 457.767 52.7977 452.349C52.7977 446.914 53.8197 442.291 55.8638 438.478C57.9078 434.666 60.6819 431.762 64.1859 429.767C67.69 427.755 71.6321 426.75 76.0121 426.75C78.8997 426.75 81.5765 427.155 84.0423 427.966C86.5243 428.777 88.7225 429.962 90.6367 431.519C92.551 433.06 94.1083 434.95 95.3088 437.189C96.5255 439.427 97.3042 441.991 97.6449 444.878Z" fill="black"/>
<path d="M11.2909 477.267H0L17.204 427.431H30.7822L47.9618 477.267H36.671L24.1878 438.819H23.7984L11.2909 477.267ZM10.5852 457.678H37.255V465.903H10.5852V457.678Z" fill="black"/>
<path d="M508.809 519V546.912H506.588V519H508.809Z" fill="black"/>
<path d="M484.397 541.442V524.47H495.038V526.674H486.958V531.845H494.483V534.042H486.958V539.238H495.138V541.442H484.397Z" fill="black"/>
<path d="M477.937 529.831C477.777 529.328 477.561 528.878 477.291 528.48C477.025 528.077 476.708 527.735 476.337 527.453C475.967 527.165 475.545 526.947 475.07 526.798C474.6 526.649 474.083 526.574 473.52 526.574C472.564 526.574 471.702 526.82 470.934 527.312C470.166 527.804 469.558 528.525 469.111 529.475C468.669 530.42 468.448 531.577 468.448 532.947C468.448 534.323 468.672 535.486 469.119 536.436C469.567 537.386 470.18 538.107 470.959 538.599C471.738 539.091 472.625 539.337 473.619 539.337C474.542 539.337 475.346 539.149 476.031 538.773C476.721 538.398 477.255 537.867 477.63 537.182C478.012 536.491 478.202 535.679 478.202 534.746L478.865 534.87H474.009V532.757H480.68V534.688C480.68 536.113 480.376 537.351 479.768 538.4C479.166 539.445 478.332 540.251 477.266 540.82C476.205 541.389 474.989 541.674 473.619 541.674C472.083 541.674 470.735 541.32 469.575 540.613C468.42 539.906 467.52 538.903 466.873 537.605C466.227 536.301 465.904 534.754 465.904 532.964C465.904 531.61 466.092 530.395 466.467 529.317C466.843 528.24 467.371 527.326 468.05 526.574C468.735 525.817 469.539 525.24 470.462 524.842C471.39 524.439 472.404 524.237 473.503 524.237C474.42 524.237 475.274 524.373 476.064 524.643C476.86 524.914 477.567 525.298 478.186 525.795C478.81 526.293 479.326 526.884 479.735 527.569C480.144 528.248 480.42 529.003 480.564 529.831H477.937Z" fill="black"/>
<path d="M459.692 524.47H462.261V535.633C462.261 536.821 461.982 537.873 461.424 538.79C460.866 539.702 460.081 540.42 459.07 540.945C458.059 541.464 456.874 541.724 455.515 541.724C454.162 541.724 452.979 541.464 451.968 540.945C450.957 540.42 450.173 539.702 449.615 538.79C449.057 537.873 448.778 536.821 448.778 535.633V524.47H451.338V535.426C451.338 536.193 451.507 536.876 451.844 537.473C452.186 538.069 452.67 538.539 453.294 538.881C453.918 539.218 454.659 539.387 455.515 539.387C456.377 539.387 457.12 539.218 457.744 538.881C458.374 538.539 458.855 538.069 459.186 537.473C459.523 536.876 459.692 536.193 459.692 535.426V524.47Z" fill="black"/>
<path d="M435.138 541.442V524.47H437.699V539.238H445.389V541.442H435.138Z" fill="black"/>
<path d="M428.91 528.928C428.821 528.143 428.457 527.536 427.816 527.105C427.175 526.668 426.368 526.45 425.396 526.45C424.7 526.45 424.097 526.561 423.589 526.782C423.081 526.997 422.686 527.295 422.404 527.677C422.128 528.052 421.99 528.48 421.99 528.961C421.99 529.364 422.084 529.712 422.271 530.005C422.465 530.298 422.716 530.544 423.026 530.743C423.341 530.936 423.678 531.099 424.037 531.232C424.396 531.359 424.741 531.464 425.073 531.547L426.73 531.978C427.271 532.11 427.827 532.29 428.396 532.516C428.965 532.743 429.492 533.041 429.979 533.411C430.465 533.782 430.857 534.24 431.155 534.787C431.459 535.334 431.611 535.989 431.611 536.751C431.611 537.712 431.363 538.566 430.865 539.312C430.374 540.058 429.658 540.646 428.719 541.077C427.785 541.508 426.655 541.724 425.329 541.724C424.059 541.724 422.959 541.522 422.031 541.119C421.103 540.715 420.376 540.143 419.852 539.403C419.327 538.657 419.037 537.773 418.981 536.751H421.55C421.6 537.364 421.799 537.875 422.147 538.284C422.501 538.688 422.951 538.989 423.498 539.188C424.05 539.381 424.655 539.478 425.313 539.478C426.037 539.478 426.68 539.364 427.244 539.138C427.813 538.906 428.26 538.585 428.586 538.177C428.912 537.762 429.075 537.279 429.075 536.726C429.075 536.224 428.932 535.812 428.644 535.491C428.363 535.171 427.979 534.906 427.492 534.696C427.012 534.486 426.468 534.301 425.86 534.141L423.854 533.594C422.495 533.224 421.418 532.679 420.622 531.961C419.832 531.243 419.437 530.293 419.437 529.11C419.437 528.132 419.702 527.279 420.233 526.549C420.763 525.82 421.481 525.254 422.387 524.851C423.294 524.442 424.316 524.237 425.454 524.237C426.603 524.237 427.617 524.439 428.495 524.842C429.379 525.246 430.075 525.801 430.584 526.508C431.092 527.21 431.357 528.016 431.379 528.928H428.91Z" fill="black"/>
<path d="M412.894 524.47H415.463V535.633C415.463 536.821 415.184 537.873 414.626 538.79C414.068 539.702 413.283 540.42 412.272 540.945C411.261 541.464 410.076 541.724 408.717 541.724C407.363 541.724 406.181 541.464 405.17 540.945C404.159 540.42 403.374 539.702 402.816 538.79C402.258 537.873 401.979 536.821 401.979 535.633V524.47H404.54V535.426C404.54 536.193 404.709 536.876 405.046 537.473C405.388 538.069 405.872 538.539 406.496 538.881C407.12 539.218 407.861 539.387 408.717 539.387C409.579 539.387 410.322 539.218 410.946 538.881C411.576 538.539 412.057 538.069 412.388 537.473C412.725 536.876 412.894 536.193 412.894 535.426V524.47Z" fill="black"/>
<path d="M391.141 524.47V541.442H388.58V524.47H391.141Z" fill="black"/>
<path d="M378.277 532.956C378.277 534.768 377.946 536.326 377.283 537.63C376.62 538.928 375.711 539.928 374.556 540.63C373.407 541.326 372.101 541.674 370.637 541.674C369.167 541.674 367.855 541.326 366.7 540.63C365.551 539.928 364.645 538.925 363.982 537.621C363.319 536.317 362.987 534.762 362.987 532.956C362.987 531.143 363.319 529.588 363.982 528.29C364.645 526.986 365.551 525.986 366.7 525.29C367.855 524.588 369.167 524.237 370.637 524.237C372.101 524.237 373.407 524.588 374.556 525.29C375.711 525.986 376.62 526.986 377.283 528.29C377.946 529.588 378.277 531.143 378.277 532.956ZM375.742 532.956C375.742 531.574 375.518 530.411 375.07 529.467C374.628 528.516 374.021 527.798 373.247 527.312C372.479 526.82 371.609 526.574 370.637 526.574C369.659 526.574 368.786 526.82 368.018 527.312C367.25 527.798 366.642 528.516 366.195 529.467C365.753 530.411 365.532 531.574 365.532 532.956C365.532 534.337 365.753 535.503 366.195 536.453C366.642 537.398 367.25 538.116 368.018 538.607C368.786 539.094 369.659 539.337 370.637 539.337C371.609 539.337 372.479 539.094 373.247 538.607C374.021 538.116 374.628 537.398 375.07 536.453C375.518 535.503 375.742 534.337 375.742 532.956Z" fill="black"/>
<path d="M349.054 524.47L353.778 538.293H353.968L358.692 524.47H361.46L355.352 541.442H352.394L346.286 524.47H349.054Z" fill="black"/>
<path d="M331.066 526.674V524.47H344.201V526.674H338.905V541.442H336.353V526.674H331.066Z" fill="black"/>
<path d="M325.674 528.928C325.586 528.143 325.221 527.536 324.58 527.105C323.939 526.668 323.133 526.45 322.16 526.45C321.464 526.45 320.862 526.561 320.354 526.782C319.845 526.997 319.45 527.295 319.169 527.677C318.892 528.052 318.754 528.48 318.754 528.961C318.754 529.364 318.848 529.712 319.036 530.005C319.229 530.298 319.481 530.544 319.79 530.743C320.105 530.936 320.442 531.099 320.801 531.232C321.16 531.359 321.506 531.464 321.837 531.547L323.495 531.978C324.036 532.11 324.591 532.29 325.16 532.516C325.729 532.743 326.257 533.041 326.743 533.411C327.229 533.782 327.622 534.24 327.92 534.787C328.224 535.334 328.376 535.989 328.376 536.751C328.376 537.712 328.127 538.566 327.63 539.312C327.138 540.058 326.423 540.646 325.484 541.077C324.55 541.508 323.42 541.724 322.094 541.724C320.823 541.724 319.724 541.522 318.796 541.119C317.868 540.715 317.141 540.143 316.616 539.403C316.091 538.657 315.801 537.773 315.746 536.751H318.315C318.365 537.364 318.564 537.875 318.912 538.284C319.265 538.688 319.716 538.989 320.263 539.188C320.815 539.381 321.42 539.478 322.077 539.478C322.801 539.478 323.445 539.364 324.008 539.138C324.577 538.906 325.025 538.585 325.351 538.177C325.677 537.762 325.84 537.279 325.84 536.726C325.84 536.224 325.696 535.812 325.409 535.491C325.127 535.171 324.743 534.906 324.257 534.696C323.776 534.486 323.232 534.301 322.624 534.141L320.619 533.594C319.26 533.224 318.182 532.679 317.387 531.961C316.597 531.243 316.202 530.293 316.202 529.11C316.202 528.132 316.467 527.279 316.997 526.549C317.528 525.82 318.246 525.254 319.152 524.851C320.058 524.442 321.08 524.237 322.218 524.237C323.368 524.237 324.381 524.439 325.26 524.842C326.144 525.246 326.84 525.801 327.348 526.508C327.856 527.21 328.122 528.016 328.144 528.928H325.674Z" fill="black"/>
<path d="M309.671 524.47H312.223V536.503C312.223 537.591 312.008 538.522 311.577 539.296C311.151 540.069 310.552 540.66 309.778 541.069C309.005 541.473 308.099 541.674 307.06 541.674C306.104 541.674 305.245 541.5 304.483 541.152C303.726 540.804 303.127 540.298 302.685 539.635C302.248 538.967 302.03 538.155 302.03 537.199H304.574C304.574 537.669 304.682 538.075 304.897 538.417C305.118 538.76 305.419 539.028 305.801 539.221C306.187 539.409 306.629 539.503 307.127 539.503C307.668 539.503 308.127 539.39 308.502 539.163C308.883 538.931 309.174 538.591 309.372 538.144C309.571 537.696 309.671 537.149 309.671 536.503V524.47Z" fill="black"/>
<path d="M289.435 541.442V524.47H291.995V539.238H299.686V541.442H289.435Z" fill="black"/>
<path d="M274.906 541.442V524.47H285.547V526.674H277.467V531.845H284.992V534.042H277.467V539.238H285.647V541.442H274.906Z" fill="black"/>
<path d="M258.402 526.674V524.47H271.537V526.674H266.242V541.442H263.689V526.674H258.402Z" fill="black"/>
<path d="M255.043 524.47V541.442H252.482V524.47H255.043Z" fill="black"/>
<path d="M240.668 541.442H235.173V524.47H240.842C242.505 524.47 243.933 524.81 245.126 525.489C246.32 526.163 247.234 527.133 247.869 528.398C248.51 529.658 248.831 531.169 248.831 532.931C248.831 534.699 248.508 536.218 247.861 537.489C247.22 538.76 246.292 539.738 245.077 540.423C243.861 541.102 242.392 541.442 240.668 541.442ZM237.734 539.205H240.527C241.82 539.205 242.894 538.961 243.751 538.475C244.607 537.984 245.248 537.274 245.673 536.345C246.099 535.412 246.311 534.274 246.311 532.931C246.311 531.6 246.099 530.47 245.673 529.542C245.253 528.613 244.626 527.909 243.792 527.428C242.958 526.948 241.922 526.707 240.684 526.707H237.734V539.205Z" fill="black"/>
<path d="M219.8 541.442H217.082L223.189 524.47H226.148L232.256 541.442H229.537L224.739 527.553H224.606L219.8 541.442ZM220.256 534.796H229.073V536.95H220.256V534.796Z" fill="black"/>
<path d="M202.858 541.442V524.47H208.908C210.223 524.47 211.314 524.696 212.181 525.149C213.054 525.602 213.706 526.229 214.137 527.031C214.568 527.826 214.783 528.746 214.783 529.79C214.783 530.829 214.565 531.743 214.129 532.533C213.698 533.318 213.046 533.928 212.173 534.365C211.305 534.801 210.214 535.019 208.899 535.019H204.316V532.815H208.667C209.496 532.815 210.17 532.696 210.689 532.459C211.214 532.221 211.598 531.876 211.841 531.423C212.084 530.97 212.206 530.426 212.206 529.79C212.206 529.149 212.082 528.594 211.833 528.124C211.59 527.655 211.206 527.296 210.681 527.047C210.162 526.793 209.479 526.666 208.634 526.666H205.419V541.442H202.858ZM211.236 533.785L215.43 541.442H212.513L208.402 533.785H211.236Z" fill="black"/>
<path d="M196.397 529.831C196.237 529.328 196.022 528.878 195.751 528.48C195.486 528.077 195.168 527.735 194.798 527.453C194.428 527.165 194.005 526.947 193.53 526.798C193.06 526.649 192.544 526.574 191.98 526.574C191.024 526.574 190.163 526.82 189.395 527.312C188.627 527.804 188.019 528.525 187.571 529.475C187.129 530.42 186.908 531.577 186.908 532.947C186.908 534.323 187.132 535.486 187.58 536.436C188.027 537.386 188.64 538.107 189.419 538.599C190.198 539.091 191.085 539.337 192.08 539.337C193.002 539.337 193.806 539.149 194.491 538.773C195.182 538.398 195.715 537.867 196.091 537.182C196.472 536.491 196.663 535.679 196.663 534.746L197.326 534.87H192.469V532.757H199.14V534.688C199.14 536.113 198.837 537.351 198.229 538.4C197.627 539.445 196.792 540.251 195.726 540.82C194.665 541.389 193.45 541.674 192.08 541.674C190.544 541.674 189.196 541.32 188.035 540.613C186.881 539.906 185.98 538.903 185.334 537.605C184.687 536.301 184.364 534.754 184.364 532.964C184.364 531.61 184.552 530.395 184.928 529.317C185.303 528.24 185.831 527.326 186.511 526.574C187.196 525.817 188 525.24 188.922 524.842C189.85 524.439 190.864 524.237 191.964 524.237C192.881 524.237 193.734 524.373 194.524 524.643C195.32 524.914 196.027 525.298 196.646 525.795C197.27 526.293 197.787 526.884 198.196 527.569C198.605 528.248 198.881 529.003 199.024 529.831H196.397Z" fill="black"/>
<path d="M162.895 541.442H160.177L166.284 524.47H169.243L175.351 541.442H172.632L167.834 527.553H167.701L162.895 541.442ZM163.351 534.796H172.168V536.95H163.351V534.796Z" fill="black"/>
<path d="M145.65 541.442V539.735L154.576 526.674H145.576V524.47H157.708V526.177L148.783 539.238H157.783V541.442H145.65Z" fill="black"/>
<path d="M134.221 519V546.912H132V519H134.221Z" fill="black"/>
<defs>
<linearGradient id="paint0_linear_4115_1059" x1="329.006" y1="289.2" x2="489.206" y2="289.2" gradientUnits="userSpaceOnUse">
<stop offset="0.365385" stop-color="#E8CC79"/>
<stop offset="0.9375" stop-color="#CBA95D"/>
</linearGradient>
<linearGradient id="paint1_linear_4115_1059" x1="132.096" y1="289.215" x2="335.616" y2="289.215" gradientUnits="userSpaceOnUse">
<stop stop-color="#CEA75A"/>
<stop offset="0.480769" stop-color="#E6C674"/>
</linearGradient>
<linearGradient id="paint2_linear_4115_1059" x1="313.746" y1="40.445" x2="273.526" y2="40.445" gradientUnits="userSpaceOnUse">
<stop stop-color="#064977"/>
<stop offset="1" stop-color="#0B88DD"/>
</linearGradient>
<linearGradient id="paint3_linear_4115_1059" x1="359.156" y1="108.575" x2="318.936" y2="108.575" gradientUnits="userSpaceOnUse">
<stop stop-color="#064977"/>
<stop offset="1" stop-color="#0B88DD"/>
</linearGradient>
<linearGradient id="paint4_linear_4115_1059" x1="406.466" y1="166.04" x2="366.246" y2="166.04" gradientUnits="userSpaceOnUse">
<stop stop-color="#064977"/>
<stop offset="1" stop-color="#0B88DD"/>
</linearGradient>
<linearGradient id="paint5_linear_4115_1059" x1="406.466" y1="115.005" x2="366.246" y2="115.005" gradientUnits="userSpaceOnUse">
<stop stop-color="#064977"/>
<stop offset="1" stop-color="#0B88DD"/>
</linearGradient>
<linearGradient id="paint6_linear_4115_1059" x1="267.366" y1="111.57" x2="227.136" y2="111.57" gradientUnits="userSpaceOnUse">
<stop stop-color="#064977"/>
<stop offset="1" stop-color="#0B88DD"/>
</linearGradient>
<linearGradient id="paint7_linear_4115_1059" x1="233.966" y1="236.7" x2="233.856" y2="236.7" gradientUnits="userSpaceOnUse">
<stop stop-color="#064977"/>
<stop offset="1" stop-color="#0B88DD"/>
</linearGradient>
<linearGradient id="paint8_linear_4115_1059" x1="313.746" y1="188.975" x2="273.526" y2="188.975" gradientUnits="userSpaceOnUse">
<stop stop-color="#064977"/>
<stop offset="1" stop-color="#0B88DD"/>
</linearGradient>
<linearGradient id="paint9_linear_4115_1059" x1="267.366" y1="175.965" x2="228.916" y2="175.965" gradientUnits="userSpaceOnUse">
<stop stop-color="#064977"/>
<stop offset="1" stop-color="#0B88DD"/>
</linearGradient>
<clipPath id="clip0_4115_1059">
<rect width="363.11" height="394.91" fill="white" transform="translate(126.096)"/>
</clipPath>
</defs>
</svg>
